<mxfile host="Electron" agent="Mozilla/5.0 (Windows NT 10.0; Win64; x64) AppleWebKit/537.36 (KHTML, like Gecko) draw.io/24.7.17 Chrome/128.0.6613.36 Electron/32.0.1 Safari/537.36" version="24.7.17">
  <diagram name="Trang-1" id="wX4QmnhliXkfDA_kfqOY">
    <mxGraphModel dx="1434" dy="836" grid="1" gridSize="10" guides="1" tooltips="1" connect="1" arrows="1" fold="1" page="1" pageScale="1" pageWidth="850" pageHeight="1100" math="0" shadow="0">
      <root>
        <mxCell id="0" />
        <mxCell id="1" parent="0" />
        <mxCell id="7EL8LbDnprqv0HBP9oy3-5" value="" style="shape=umlLifeline;perimeter=lifelinePerimeter;whiteSpace=wrap;html=1;container=1;dropTarget=0;collapsible=0;recursiveResize=0;outlineConnect=0;portConstraint=eastwest;newEdgeStyle={&quot;curved&quot;:0,&quot;rounded&quot;:0};participant=umlActor;size=40;" vertex="1" parent="1">
          <mxGeometry x="60" y="40" width="20" height="380" as="geometry" />
        </mxCell>
        <mxCell id="7EL8LbDnprqv0HBP9oy3-11" value="" style="html=1;points=[[0,0,0,0,5],[0,1,0,0,-5],[1,0,0,0,5],[1,1,0,0,-5]];perimeter=orthogonalPerimeter;outlineConnect=0;targetShapes=umlLifeline;portConstraint=eastwest;newEdgeStyle={&quot;curved&quot;:0,&quot;rounded&quot;:0};" vertex="1" parent="7EL8LbDnprqv0HBP9oy3-5">
          <mxGeometry x="5" y="60" width="10" height="160" as="geometry" />
        </mxCell>
        <mxCell id="7EL8LbDnprqv0HBP9oy3-31" value="" style="html=1;points=[[0,0,0,0,5],[0,1,0,0,-5],[1,0,0,0,5],[1,1,0,0,-5]];perimeter=orthogonalPerimeter;outlineConnect=0;targetShapes=umlLifeline;portConstraint=eastwest;newEdgeStyle={&quot;curved&quot;:0,&quot;rounded&quot;:0};" vertex="1" parent="7EL8LbDnprqv0HBP9oy3-5">
          <mxGeometry x="5" y="280" width="10" height="60" as="geometry" />
        </mxCell>
        <mxCell id="7EL8LbDnprqv0HBP9oy3-6" value="Visitor/Checking Staff" style="text;strokeColor=none;align=center;fillColor=none;html=1;verticalAlign=middle;whiteSpace=wrap;rounded=0;" vertex="1" parent="1">
          <mxGeometry x="10" y="10" width="130" height="30" as="geometry" />
        </mxCell>
        <mxCell id="7EL8LbDnprqv0HBP9oy3-9" value="" style="shape=umlLifeline;perimeter=lifelinePerimeter;whiteSpace=wrap;html=1;container=1;dropTarget=0;collapsible=0;recursiveResize=0;outlineConnect=0;portConstraint=eastwest;newEdgeStyle={&quot;curved&quot;:0,&quot;rounded&quot;:0};participant=umlBoundary;" vertex="1" parent="1">
          <mxGeometry x="200" y="40" width="50" height="380" as="geometry" />
        </mxCell>
        <mxCell id="7EL8LbDnprqv0HBP9oy3-12" value="" style="html=1;points=[[0,0,0,0,5],[0,1,0,0,-5],[1,0,0,0,5],[1,1,0,0,-5]];perimeter=orthogonalPerimeter;outlineConnect=0;targetShapes=umlLifeline;portConstraint=eastwest;newEdgeStyle={&quot;curved&quot;:0,&quot;rounded&quot;:0};" vertex="1" parent="7EL8LbDnprqv0HBP9oy3-9">
          <mxGeometry x="20" y="60" width="10" height="140" as="geometry" />
        </mxCell>
        <mxCell id="7EL8LbDnprqv0HBP9oy3-29" value="" style="html=1;points=[[0,0,0,0,5],[0,1,0,0,-5],[1,0,0,0,5],[1,1,0,0,-5]];perimeter=orthogonalPerimeter;outlineConnect=0;targetShapes=umlLifeline;portConstraint=eastwest;newEdgeStyle={&quot;curved&quot;:0,&quot;rounded&quot;:0};" vertex="1" parent="7EL8LbDnprqv0HBP9oy3-9">
          <mxGeometry x="20" y="280" width="10" height="60" as="geometry" />
        </mxCell>
        <mxCell id="7EL8LbDnprqv0HBP9oy3-10" value="Web" style="text;strokeColor=none;align=center;fillColor=none;html=1;verticalAlign=middle;whiteSpace=wrap;rounded=0;" vertex="1" parent="1">
          <mxGeometry x="195" y="10" width="60" height="30" as="geometry" />
        </mxCell>
        <mxCell id="7EL8LbDnprqv0HBP9oy3-13" value="scan QR" style="html=1;verticalAlign=bottom;endArrow=block;curved=0;rounded=0;entryX=0;entryY=0;entryDx=0;entryDy=5;entryPerimeter=0;exitX=1;exitY=0;exitDx=0;exitDy=5;exitPerimeter=0;" edge="1" parent="1" source="7EL8LbDnprqv0HBP9oy3-11" target="7EL8LbDnprqv0HBP9oy3-12">
          <mxGeometry width="80" relative="1" as="geometry">
            <mxPoint x="110" y="120" as="sourcePoint" />
            <mxPoint x="190" y="120" as="targetPoint" />
          </mxGeometry>
        </mxCell>
        <mxCell id="7EL8LbDnprqv0HBP9oy3-14" value="" style="shape=umlLifeline;perimeter=lifelinePerimeter;whiteSpace=wrap;html=1;container=1;dropTarget=0;collapsible=0;recursiveResize=0;outlineConnect=0;portConstraint=eastwest;newEdgeStyle={&quot;curved&quot;:0,&quot;rounded&quot;:0};participant=umlEntity;" vertex="1" parent="1">
          <mxGeometry x="350" y="40" width="40" height="380" as="geometry" />
        </mxCell>
        <mxCell id="7EL8LbDnprqv0HBP9oy3-17" value="" style="html=1;points=[[0,0,0,0,5],[0,1,0,0,-5],[1,0,0,0,5],[1,1,0,0,-5]];perimeter=orthogonalPerimeter;outlineConnect=0;targetShapes=umlLifeline;portConstraint=eastwest;newEdgeStyle={&quot;curved&quot;:0,&quot;rounded&quot;:0};" vertex="1" parent="7EL8LbDnprqv0HBP9oy3-14">
          <mxGeometry x="15" y="90" width="10" height="100" as="geometry" />
        </mxCell>
        <mxCell id="7EL8LbDnprqv0HBP9oy3-28" value="" style="html=1;points=[[0,0,0,0,5],[0,1,0,0,-5],[1,0,0,0,5],[1,1,0,0,-5]];perimeter=orthogonalPerimeter;outlineConnect=0;targetShapes=umlLifeline;portConstraint=eastwest;newEdgeStyle={&quot;curved&quot;:0,&quot;rounded&quot;:0};" vertex="1" parent="7EL8LbDnprqv0HBP9oy3-14">
          <mxGeometry x="15" y="280" width="10" height="60" as="geometry" />
        </mxCell>
        <mxCell id="7EL8LbDnprqv0HBP9oy3-15" value="Checkin service" style="text;strokeColor=none;align=center;fillColor=none;html=1;verticalAlign=middle;whiteSpace=wrap;rounded=0;" vertex="1" parent="1">
          <mxGeometry x="325" y="10" width="90" height="30" as="geometry" />
        </mxCell>
        <mxCell id="7EL8LbDnprqv0HBP9oy3-16" value="send QR data" style="html=1;verticalAlign=bottom;endArrow=block;curved=0;rounded=0;exitX=0.974;exitY=0.243;exitDx=0;exitDy=0;exitPerimeter=0;" edge="1" parent="1" source="7EL8LbDnprqv0HBP9oy3-12" target="7EL8LbDnprqv0HBP9oy3-17">
          <mxGeometry width="80" relative="1" as="geometry">
            <mxPoint x="250" y="120" as="sourcePoint" />
            <mxPoint x="330" y="120" as="targetPoint" />
          </mxGeometry>
        </mxCell>
        <mxCell id="7EL8LbDnprqv0HBP9oy3-20" value="validate ticket" style="html=1;align=left;spacingLeft=2;endArrow=block;rounded=0;edgeStyle=orthogonalEdgeStyle;curved=0;rounded=0;entryX=1.038;entryY=0.747;entryDx=0;entryDy=0;entryPerimeter=0;exitX=0.962;exitY=0.368;exitDx=0;exitDy=0;exitPerimeter=0;" edge="1" parent="1">
          <mxGeometry relative="1" as="geometry">
            <mxPoint x="375" y="160.03" as="sourcePoint" />
            <Array as="points">
              <mxPoint x="410" y="160.19" />
              <mxPoint x="410" y="190.19" />
            </Array>
            <mxPoint x="375.76" y="190.35" as="targetPoint" />
          </mxGeometry>
        </mxCell>
        <mxCell id="7EL8LbDnprqv0HBP9oy3-21" value="success response" style="html=1;verticalAlign=bottom;endArrow=open;dashed=1;endSize=8;curved=0;rounded=0;exitX=-0.1;exitY=0.897;exitDx=0;exitDy=0;exitPerimeter=0;" edge="1" parent="1">
          <mxGeometry relative="1" as="geometry">
            <mxPoint x="364" y="209.99999999999994" as="sourcePoint" />
            <mxPoint x="230" y="209.99999999999994" as="targetPoint" />
          </mxGeometry>
        </mxCell>
        <mxCell id="7EL8LbDnprqv0HBP9oy3-22" value="allow entry" style="html=1;verticalAlign=bottom;endArrow=open;dashed=1;endSize=8;curved=0;rounded=0;exitX=0.016;exitY=0.94;exitDx=0;exitDy=0;exitPerimeter=0;" edge="1" parent="1" source="7EL8LbDnprqv0HBP9oy3-12" target="7EL8LbDnprqv0HBP9oy3-11">
          <mxGeometry relative="1" as="geometry">
            <mxPoint x="170" y="230" as="sourcePoint" />
            <mxPoint x="90" y="230" as="targetPoint" />
          </mxGeometry>
        </mxCell>
        <mxCell id="7EL8LbDnprqv0HBP9oy3-23" value="" style="shape=umlLifeline;perimeter=lifelinePerimeter;whiteSpace=wrap;html=1;container=1;dropTarget=0;collapsible=0;recursiveResize=0;outlineConnect=0;portConstraint=eastwest;newEdgeStyle={&quot;curved&quot;:0,&quot;rounded&quot;:0};participant=umlEntity;" vertex="1" parent="1">
          <mxGeometry x="530" y="40" width="40" height="380" as="geometry" />
        </mxCell>
        <mxCell id="7EL8LbDnprqv0HBP9oy3-26" value="" style="html=1;points=[[0,0,0,0,5],[0,1,0,0,-5],[1,0,0,0,5],[1,1,0,0,-5]];perimeter=orthogonalPerimeter;outlineConnect=0;targetShapes=umlLifeline;portConstraint=eastwest;newEdgeStyle={&quot;curved&quot;:0,&quot;rounded&quot;:0};" vertex="1" parent="7EL8LbDnprqv0HBP9oy3-23">
          <mxGeometry x="15" y="160" width="10" height="80" as="geometry" />
        </mxCell>
        <mxCell id="7EL8LbDnprqv0HBP9oy3-27" value="update data" style="html=1;align=left;spacingLeft=2;endArrow=block;rounded=0;edgeStyle=orthogonalEdgeStyle;curved=0;rounded=0;entryX=1;entryY=0.751;entryDx=0;entryDy=0;entryPerimeter=0;exitX=1.043;exitY=0.376;exitDx=0;exitDy=0;exitPerimeter=0;" edge="1" parent="7EL8LbDnprqv0HBP9oy3-23" source="7EL8LbDnprqv0HBP9oy3-26" target="7EL8LbDnprqv0HBP9oy3-26">
          <mxGeometry relative="1" as="geometry">
            <mxPoint x="30" y="190.03" as="sourcePoint" />
            <Array as="points">
              <mxPoint x="65" y="190" />
              <mxPoint x="65" y="220" />
            </Array>
            <mxPoint x="30.75999999999999" y="220.35000000000002" as="targetPoint" />
          </mxGeometry>
        </mxCell>
        <mxCell id="7EL8LbDnprqv0HBP9oy3-24" value="Analystics service" style="text;strokeColor=none;align=center;fillColor=none;html=1;verticalAlign=middle;whiteSpace=wrap;rounded=0;" vertex="1" parent="1">
          <mxGeometry x="500" y="10" width="100" height="30" as="geometry" />
        </mxCell>
        <mxCell id="7EL8LbDnprqv0HBP9oy3-25" value="send checkin event" style="html=1;verticalAlign=bottom;endArrow=block;curved=0;rounded=0;" edge="1" parent="1">
          <mxGeometry width="80" relative="1" as="geometry">
            <mxPoint x="375" y="220" as="sourcePoint" />
            <mxPoint x="545" y="220" as="targetPoint" />
          </mxGeometry>
        </mxCell>
        <mxCell id="7EL8LbDnprqv0HBP9oy3-30" value="error response" style="html=1;verticalAlign=bottom;endArrow=open;dashed=1;endSize=8;curved=0;rounded=0;exitX=0;exitY=0;exitDx=0;exitDy=5;exitPerimeter=0;entryX=1;entryY=0;entryDx=0;entryDy=5;entryPerimeter=0;" edge="1" parent="1" source="7EL8LbDnprqv0HBP9oy3-28" target="7EL8LbDnprqv0HBP9oy3-29">
          <mxGeometry relative="1" as="geometry">
            <mxPoint x="340" y="330" as="sourcePoint" />
            <mxPoint x="260" y="330" as="targetPoint" />
          </mxGeometry>
        </mxCell>
        <mxCell id="7EL8LbDnprqv0HBP9oy3-32" value="deny entry" style="html=1;verticalAlign=bottom;endArrow=open;dashed=1;endSize=8;curved=0;rounded=0;" edge="1" parent="1" target="7EL8LbDnprqv0HBP9oy3-31">
          <mxGeometry relative="1" as="geometry">
            <mxPoint x="220" y="351" as="sourcePoint" />
            <mxPoint x="120" y="350" as="targetPoint" />
          </mxGeometry>
        </mxCell>
      </root>
    </mxGraphModel>
  </diagram>
</mxfile>
